# xmcd
#
# Track frame offsets: 
#        150
#        19839
#        43593
#        68249
#        93703
#        112463
#        127350
#        148551
#        164794
#        171497
#        190495
#        204792
#        232481
#        250074
#        291114
#
# Disc length: 4645 seconds
#
# Revision: 2
# Processed by: cddbd v1.5.2PL0 Copyright (c) Steve Scherf et al.
# Submitted via: ExactAudioCopy v0.95b3
#
DISCID=f912230f
DTITLE=Popa Chubby - Stealing the Devil's Guitar
DYEAR=2006
DGENRE=Blues
TTITLE0=Slide Devil Man Slide
TTITLE1=Smuggler's Game
TTITLE2=Why I Can't Have You
TTITLE3=Right On
TTITLE4=In This World
TTITLE5=Walking With Amar
TTITLE6=Stoned Again
TTITLE7=Young Guns
TTITLE8=Buffalo Chips
TTITLE9=Bold As Love
TTITLE10=Long Deep Hard and Wide
TTITLE11=Virgil And Smokey
TTITLE12=Preacher Man
TTITLE13=The Devil's Guitar
TTITLE14=Video - Smuggler's Game
EXTD=2006
EXTT0=
EXTT1=
EXTT2=
EXTT3=
EXTT4=
EXTT5=
EXTT6=
EXTT7=
EXTT8=
EXTT9=
EXTT10=
EXTT11=
EXTT12=
EXTT13=
EXTT14=
PLAYORDER=
